<mxfile host="Electron" modified="2024-06-16T15:03:51.238Z" agent="Mozilla/5.0 (Windows NT 10.0; Win64; x64) AppleWebKit/537.36 (KHTML, like Gecko) draw.io/21.2.8 Chrome/112.0.5615.165 Electron/24.2.0 Safari/537.36" etag="GLUXDbmPcqyf1BYCC3vS" version="21.2.8" type="device">
  <diagram name="第 1 页" id="X7ytahetobHlr680g0_V">
    <mxGraphModel dx="1434" dy="854" grid="1" gridSize="10" guides="1" tooltips="1" connect="1" arrows="1" fold="1" page="1" pageScale="1" pageWidth="2339" pageHeight="3300" math="0" shadow="0">
      <root>
        <mxCell id="0" />
        <mxCell id="1" parent="0" />
        <mxCell id="FKDgc5EwqkmSbdrUzrhq-57" style="edgeStyle=orthogonalEdgeStyle;rounded=0;orthogonalLoop=1;jettySize=auto;html=1;entryX=0;entryY=0.5;entryDx=0;entryDy=0;" edge="1" parent="1" source="FKDgc5EwqkmSbdrUzrhq-1" target="FKDgc5EwqkmSbdrUzrhq-47">
          <mxGeometry relative="1" as="geometry" />
        </mxCell>
        <mxCell id="FKDgc5EwqkmSbdrUzrhq-1" value="memory" style="rounded=0;whiteSpace=wrap;html=1;fillColor=#99FF99;" vertex="1" parent="1">
          <mxGeometry x="960" y="210" width="120" height="60" as="geometry" />
        </mxCell>
        <mxCell id="FKDgc5EwqkmSbdrUzrhq-2" value="reserved" style="rounded=0;whiteSpace=wrap;html=1;fillColor=#FFCE9F;" vertex="1" parent="1">
          <mxGeometry x="960" y="270" width="120" height="60" as="geometry" />
        </mxCell>
        <mxCell id="FKDgc5EwqkmSbdrUzrhq-33" style="edgeStyle=orthogonalEdgeStyle;rounded=0;orthogonalLoop=1;jettySize=auto;html=1;entryX=0;entryY=0.5;entryDx=0;entryDy=0;" edge="1" parent="1" source="FKDgc5EwqkmSbdrUzrhq-3" target="FKDgc5EwqkmSbdrUzrhq-1">
          <mxGeometry relative="1" as="geometry" />
        </mxCell>
        <mxCell id="FKDgc5EwqkmSbdrUzrhq-3" value="" style="rounded=0;whiteSpace=wrap;html=1;" vertex="1" parent="1">
          <mxGeometry x="720" y="210" width="120" height="60" as="geometry" />
        </mxCell>
        <mxCell id="FKDgc5EwqkmSbdrUzrhq-34" style="edgeStyle=orthogonalEdgeStyle;rounded=0;orthogonalLoop=1;jettySize=auto;html=1;" edge="1" parent="1" source="FKDgc5EwqkmSbdrUzrhq-4" target="FKDgc5EwqkmSbdrUzrhq-2">
          <mxGeometry relative="1" as="geometry" />
        </mxCell>
        <mxCell id="FKDgc5EwqkmSbdrUzrhq-4" value="kernel image" style="rounded=0;whiteSpace=wrap;html=1;" vertex="1" parent="1">
          <mxGeometry x="720" y="270" width="120" height="60" as="geometry" />
        </mxCell>
        <mxCell id="FKDgc5EwqkmSbdrUzrhq-5" value="memblock" style="text;strokeColor=none;fillColor=none;html=1;fontSize=24;fontStyle=1;verticalAlign=middle;align=center;" vertex="1" parent="1">
          <mxGeometry x="950" y="160" width="140" height="40" as="geometry" />
        </mxCell>
        <mxCell id="FKDgc5EwqkmSbdrUzrhq-6" value="物理内存" style="text;strokeColor=none;fillColor=none;html=1;fontSize=24;fontStyle=1;verticalAlign=middle;align=center;" vertex="1" parent="1">
          <mxGeometry x="750" y="170" width="100" height="40" as="geometry" />
        </mxCell>
        <mxCell id="FKDgc5EwqkmSbdrUzrhq-58" style="edgeStyle=orthogonalEdgeStyle;rounded=0;orthogonalLoop=1;jettySize=auto;html=1;entryX=0;entryY=0.5;entryDx=0;entryDy=0;" edge="1" parent="1" source="FKDgc5EwqkmSbdrUzrhq-7" target="FKDgc5EwqkmSbdrUzrhq-47">
          <mxGeometry relative="1" as="geometry" />
        </mxCell>
        <mxCell id="FKDgc5EwqkmSbdrUzrhq-7" value="memory" style="rounded=0;whiteSpace=wrap;html=1;fillColor=#99FF99;" vertex="1" parent="1">
          <mxGeometry x="960" y="330" width="120" height="60" as="geometry" />
        </mxCell>
        <mxCell id="FKDgc5EwqkmSbdrUzrhq-35" style="edgeStyle=orthogonalEdgeStyle;rounded=0;orthogonalLoop=1;jettySize=auto;html=1;" edge="1" parent="1" source="FKDgc5EwqkmSbdrUzrhq-8" target="FKDgc5EwqkmSbdrUzrhq-7">
          <mxGeometry relative="1" as="geometry" />
        </mxCell>
        <mxCell id="FKDgc5EwqkmSbdrUzrhq-8" value="" style="rounded=0;whiteSpace=wrap;html=1;" vertex="1" parent="1">
          <mxGeometry x="720" y="330" width="120" height="60" as="geometry" />
        </mxCell>
        <mxCell id="FKDgc5EwqkmSbdrUzrhq-36" style="edgeStyle=orthogonalEdgeStyle;rounded=0;orthogonalLoop=1;jettySize=auto;html=1;entryX=0;entryY=0.5;entryDx=0;entryDy=0;" edge="1" parent="1" source="FKDgc5EwqkmSbdrUzrhq-9" target="FKDgc5EwqkmSbdrUzrhq-20">
          <mxGeometry relative="1" as="geometry" />
        </mxCell>
        <mxCell id="FKDgc5EwqkmSbdrUzrhq-9" value="initrd" style="rounded=0;whiteSpace=wrap;html=1;" vertex="1" parent="1">
          <mxGeometry x="720" y="390" width="120" height="60" as="geometry" />
        </mxCell>
        <mxCell id="FKDgc5EwqkmSbdrUzrhq-37" style="edgeStyle=orthogonalEdgeStyle;rounded=0;orthogonalLoop=1;jettySize=auto;html=1;entryX=0;entryY=0.5;entryDx=0;entryDy=0;" edge="1" parent="1" source="FKDgc5EwqkmSbdrUzrhq-10" target="FKDgc5EwqkmSbdrUzrhq-21">
          <mxGeometry relative="1" as="geometry" />
        </mxCell>
        <mxCell id="FKDgc5EwqkmSbdrUzrhq-10" value="" style="rounded=0;whiteSpace=wrap;html=1;" vertex="1" parent="1">
          <mxGeometry x="720" y="450" width="120" height="60" as="geometry" />
        </mxCell>
        <mxCell id="FKDgc5EwqkmSbdrUzrhq-38" style="edgeStyle=orthogonalEdgeStyle;rounded=0;orthogonalLoop=1;jettySize=auto;html=1;entryX=0;entryY=0.5;entryDx=0;entryDy=0;" edge="1" parent="1" source="FKDgc5EwqkmSbdrUzrhq-11" target="FKDgc5EwqkmSbdrUzrhq-22">
          <mxGeometry relative="1" as="geometry" />
        </mxCell>
        <mxCell id="FKDgc5EwqkmSbdrUzrhq-11" value="pg table" style="rounded=0;whiteSpace=wrap;html=1;" vertex="1" parent="1">
          <mxGeometry x="720" y="510" width="120" height="60" as="geometry" />
        </mxCell>
        <mxCell id="FKDgc5EwqkmSbdrUzrhq-39" style="edgeStyle=orthogonalEdgeStyle;rounded=0;orthogonalLoop=1;jettySize=auto;html=1;entryX=0;entryY=0.5;entryDx=0;entryDy=0;" edge="1" parent="1" source="FKDgc5EwqkmSbdrUzrhq-12" target="FKDgc5EwqkmSbdrUzrhq-23">
          <mxGeometry relative="1" as="geometry" />
        </mxCell>
        <mxCell id="FKDgc5EwqkmSbdrUzrhq-12" value="" style="rounded=0;whiteSpace=wrap;html=1;" vertex="1" parent="1">
          <mxGeometry x="720" y="570" width="120" height="60" as="geometry" />
        </mxCell>
        <mxCell id="FKDgc5EwqkmSbdrUzrhq-40" style="edgeStyle=orthogonalEdgeStyle;rounded=0;orthogonalLoop=1;jettySize=auto;html=1;entryX=0;entryY=0.5;entryDx=0;entryDy=0;" edge="1" parent="1" source="FKDgc5EwqkmSbdrUzrhq-13" target="FKDgc5EwqkmSbdrUzrhq-24">
          <mxGeometry relative="1" as="geometry" />
        </mxCell>
        <mxCell id="FKDgc5EwqkmSbdrUzrhq-13" value="fdt" style="rounded=0;whiteSpace=wrap;html=1;" vertex="1" parent="1">
          <mxGeometry x="720" y="630" width="120" height="60" as="geometry" />
        </mxCell>
        <mxCell id="FKDgc5EwqkmSbdrUzrhq-41" style="edgeStyle=orthogonalEdgeStyle;rounded=0;orthogonalLoop=1;jettySize=auto;html=1;entryX=0;entryY=0.5;entryDx=0;entryDy=0;" edge="1" parent="1" source="FKDgc5EwqkmSbdrUzrhq-14" target="FKDgc5EwqkmSbdrUzrhq-25">
          <mxGeometry relative="1" as="geometry" />
        </mxCell>
        <mxCell id="FKDgc5EwqkmSbdrUzrhq-14" value="" style="rounded=0;whiteSpace=wrap;html=1;" vertex="1" parent="1">
          <mxGeometry x="720" y="690" width="120" height="60" as="geometry" />
        </mxCell>
        <mxCell id="FKDgc5EwqkmSbdrUzrhq-42" style="edgeStyle=orthogonalEdgeStyle;rounded=0;orthogonalLoop=1;jettySize=auto;html=1;entryX=0;entryY=0.5;entryDx=0;entryDy=0;" edge="1" parent="1" source="FKDgc5EwqkmSbdrUzrhq-15" target="FKDgc5EwqkmSbdrUzrhq-26">
          <mxGeometry relative="1" as="geometry" />
        </mxCell>
        <mxCell id="FKDgc5EwqkmSbdrUzrhq-15" value="cma" style="rounded=0;whiteSpace=wrap;html=1;" vertex="1" parent="1">
          <mxGeometry x="720" y="750" width="120" height="60" as="geometry" />
        </mxCell>
        <mxCell id="FKDgc5EwqkmSbdrUzrhq-43" style="edgeStyle=orthogonalEdgeStyle;rounded=0;orthogonalLoop=1;jettySize=auto;html=1;entryX=0;entryY=0.5;entryDx=0;entryDy=0;" edge="1" parent="1" source="FKDgc5EwqkmSbdrUzrhq-16" target="FKDgc5EwqkmSbdrUzrhq-27">
          <mxGeometry relative="1" as="geometry" />
        </mxCell>
        <mxCell id="FKDgc5EwqkmSbdrUzrhq-16" value="" style="rounded=0;whiteSpace=wrap;html=1;" vertex="1" parent="1">
          <mxGeometry x="720" y="810" width="120" height="60" as="geometry" />
        </mxCell>
        <mxCell id="FKDgc5EwqkmSbdrUzrhq-44" style="edgeStyle=orthogonalEdgeStyle;rounded=0;orthogonalLoop=1;jettySize=auto;html=1;entryX=0;entryY=0.5;entryDx=0;entryDy=0;" edge="1" parent="1" source="FKDgc5EwqkmSbdrUzrhq-17" target="FKDgc5EwqkmSbdrUzrhq-28">
          <mxGeometry relative="1" as="geometry" />
        </mxCell>
        <mxCell id="FKDgc5EwqkmSbdrUzrhq-17" value="display" style="rounded=0;whiteSpace=wrap;html=1;" vertex="1" parent="1">
          <mxGeometry x="720" y="870" width="120" height="60" as="geometry" />
        </mxCell>
        <mxCell id="FKDgc5EwqkmSbdrUzrhq-45" style="edgeStyle=orthogonalEdgeStyle;rounded=0;orthogonalLoop=1;jettySize=auto;html=1;entryX=0;entryY=0.5;entryDx=0;entryDy=0;" edge="1" parent="1" source="FKDgc5EwqkmSbdrUzrhq-18" target="FKDgc5EwqkmSbdrUzrhq-29">
          <mxGeometry relative="1" as="geometry" />
        </mxCell>
        <mxCell id="FKDgc5EwqkmSbdrUzrhq-18" value="" style="rounded=0;whiteSpace=wrap;html=1;" vertex="1" parent="1">
          <mxGeometry x="720" y="930" width="120" height="60" as="geometry" />
        </mxCell>
        <mxCell id="FKDgc5EwqkmSbdrUzrhq-46" style="edgeStyle=orthogonalEdgeStyle;rounded=0;orthogonalLoop=1;jettySize=auto;html=1;entryX=0;entryY=0.5;entryDx=0;entryDy=0;" edge="1" parent="1" source="FKDgc5EwqkmSbdrUzrhq-19" target="FKDgc5EwqkmSbdrUzrhq-32">
          <mxGeometry relative="1" as="geometry" />
        </mxCell>
        <mxCell id="FKDgc5EwqkmSbdrUzrhq-19" value="multimedia" style="rounded=0;whiteSpace=wrap;html=1;" vertex="1" parent="1">
          <mxGeometry x="720" y="990" width="120" height="60" as="geometry" />
        </mxCell>
        <mxCell id="FKDgc5EwqkmSbdrUzrhq-20" value="reserved" style="rounded=0;whiteSpace=wrap;html=1;fillColor=#FFCE9F;" vertex="1" parent="1">
          <mxGeometry x="960" y="390" width="120" height="60" as="geometry" />
        </mxCell>
        <mxCell id="FKDgc5EwqkmSbdrUzrhq-59" style="edgeStyle=orthogonalEdgeStyle;rounded=0;orthogonalLoop=1;jettySize=auto;html=1;" edge="1" parent="1" source="FKDgc5EwqkmSbdrUzrhq-21" target="FKDgc5EwqkmSbdrUzrhq-47">
          <mxGeometry relative="1" as="geometry" />
        </mxCell>
        <mxCell id="FKDgc5EwqkmSbdrUzrhq-21" value="memory" style="rounded=0;whiteSpace=wrap;html=1;fillColor=#99FF99;" vertex="1" parent="1">
          <mxGeometry x="960" y="450" width="120" height="60" as="geometry" />
        </mxCell>
        <mxCell id="FKDgc5EwqkmSbdrUzrhq-22" value="reserved" style="rounded=0;whiteSpace=wrap;html=1;fillColor=#FFCE9F;" vertex="1" parent="1">
          <mxGeometry x="960" y="510" width="120" height="60" as="geometry" />
        </mxCell>
        <mxCell id="FKDgc5EwqkmSbdrUzrhq-60" style="edgeStyle=orthogonalEdgeStyle;rounded=0;orthogonalLoop=1;jettySize=auto;html=1;entryX=0;entryY=0.5;entryDx=0;entryDy=0;" edge="1" parent="1" source="FKDgc5EwqkmSbdrUzrhq-23" target="FKDgc5EwqkmSbdrUzrhq-47">
          <mxGeometry relative="1" as="geometry" />
        </mxCell>
        <mxCell id="FKDgc5EwqkmSbdrUzrhq-23" value="memory" style="rounded=0;whiteSpace=wrap;html=1;fillColor=#99FF99;" vertex="1" parent="1">
          <mxGeometry x="960" y="570" width="120" height="60" as="geometry" />
        </mxCell>
        <mxCell id="FKDgc5EwqkmSbdrUzrhq-24" value="reserved" style="rounded=0;whiteSpace=wrap;html=1;fillColor=#FFCE9F;" vertex="1" parent="1">
          <mxGeometry x="960" y="630" width="120" height="60" as="geometry" />
        </mxCell>
        <mxCell id="FKDgc5EwqkmSbdrUzrhq-61" style="edgeStyle=orthogonalEdgeStyle;rounded=0;orthogonalLoop=1;jettySize=auto;html=1;entryX=0;entryY=0.5;entryDx=0;entryDy=0;" edge="1" parent="1" source="FKDgc5EwqkmSbdrUzrhq-25" target="FKDgc5EwqkmSbdrUzrhq-47">
          <mxGeometry relative="1" as="geometry">
            <mxPoint x="1160" y="720" as="targetPoint" />
          </mxGeometry>
        </mxCell>
        <mxCell id="FKDgc5EwqkmSbdrUzrhq-25" value="memory" style="rounded=0;whiteSpace=wrap;html=1;fillColor=#99FF99;" vertex="1" parent="1">
          <mxGeometry x="960" y="690" width="120" height="60" as="geometry" />
        </mxCell>
        <mxCell id="FKDgc5EwqkmSbdrUzrhq-26" value="reserved" style="rounded=0;whiteSpace=wrap;html=1;fillColor=#FFCE9F;" vertex="1" parent="1">
          <mxGeometry x="960" y="750" width="120" height="60" as="geometry" />
        </mxCell>
        <mxCell id="FKDgc5EwqkmSbdrUzrhq-62" style="edgeStyle=orthogonalEdgeStyle;rounded=0;orthogonalLoop=1;jettySize=auto;html=1;entryX=0;entryY=0.5;entryDx=0;entryDy=0;" edge="1" parent="1" source="FKDgc5EwqkmSbdrUzrhq-27" target="FKDgc5EwqkmSbdrUzrhq-47">
          <mxGeometry relative="1" as="geometry" />
        </mxCell>
        <mxCell id="FKDgc5EwqkmSbdrUzrhq-27" value="memory" style="rounded=0;whiteSpace=wrap;html=1;fillColor=#99FF99;" vertex="1" parent="1">
          <mxGeometry x="960" y="810" width="120" height="60" as="geometry" />
        </mxCell>
        <mxCell id="FKDgc5EwqkmSbdrUzrhq-28" value="reserved" style="rounded=0;whiteSpace=wrap;html=1;fillColor=#FFCE9F;" vertex="1" parent="1">
          <mxGeometry x="960" y="870" width="120" height="60" as="geometry" />
        </mxCell>
        <mxCell id="FKDgc5EwqkmSbdrUzrhq-63" style="edgeStyle=orthogonalEdgeStyle;rounded=0;orthogonalLoop=1;jettySize=auto;html=1;entryX=0;entryY=0.5;entryDx=0;entryDy=0;" edge="1" parent="1" source="FKDgc5EwqkmSbdrUzrhq-29" target="FKDgc5EwqkmSbdrUzrhq-47">
          <mxGeometry relative="1" as="geometry" />
        </mxCell>
        <mxCell id="FKDgc5EwqkmSbdrUzrhq-29" value="memory" style="rounded=0;whiteSpace=wrap;html=1;fillColor=#99FF99;" vertex="1" parent="1">
          <mxGeometry x="960" y="930" width="120" height="60" as="geometry" />
        </mxCell>
        <mxCell id="FKDgc5EwqkmSbdrUzrhq-32" value="reserved" style="rounded=0;whiteSpace=wrap;html=1;fillColor=#FFCE9F;" vertex="1" parent="1">
          <mxGeometry x="960" y="990" width="120" height="60" as="geometry" />
        </mxCell>
        <mxCell id="FKDgc5EwqkmSbdrUzrhq-64" style="edgeStyle=orthogonalEdgeStyle;rounded=0;orthogonalLoop=1;jettySize=auto;html=1;" edge="1" parent="1" source="FKDgc5EwqkmSbdrUzrhq-47">
          <mxGeometry relative="1" as="geometry">
            <mxPoint x="1530" y="600" as="targetPoint" />
          </mxGeometry>
        </mxCell>
        <mxCell id="FKDgc5EwqkmSbdrUzrhq-47" value="buddy system" style="rounded=0;whiteSpace=wrap;html=1;" vertex="1" parent="1">
          <mxGeometry x="1310" y="415" width="120" height="370" as="geometry" />
        </mxCell>
      </root>
    </mxGraphModel>
  </diagram>
</mxfile>
